<svg version="1.1" xmlns="http://www.w3.org/2000/svg" xmlns:xlink="http://www.w3.org/1999/xlink" width="64px" height="64px" viewBox="0,0,256,256"><g fill="#4db6ac" fill-rule="nonzero" stroke="none" stroke-width="1" stroke-linecap="butt" stroke-linejoin="miter" stroke-miterlimit="10" stroke-dasharray="" stroke-dashoffset="0" font-family="none" font-weight="none" font-size="none" text-anchor="none" style="mix-blend-mode: normal"><g transform="translate(0.00026,0.00899) scale(4,4)"><path d="M13.1,9.58l5.27,9.54c0.29905,0.54308 0.87003,0.88031 1.49,0.88h5.93c0.26066,0.00177 0.50248,-0.13558 0.63446,-0.36036c0.13198,-0.22478 0.13409,-0.50288 0.00554,-0.72964l-5.76,-10.42v0c-0.13823,-0.29572 -0.43359,-0.48615 -0.76,-0.49h-4c-0.71795,0.00115 -1.43427,0.06809 -2.14,0.2c-0.30075,0.04989 -0.55863,0.24253 -0.69178,0.51678c-0.13315,0.27425 -0.12503,0.59604 0.02178,0.86322z"></path><path d="M44.88,20h6.12c0.31503,0.00027 0.60673,-0.16601 0.76699,-0.43723c0.16026,-0.27122 0.16521,-0.60695 0.01301,-0.88277l-5.61,-10.19v0c-0.15207,-0.29722 -0.45617,-0.48584 -0.79,-0.49h-6.15c-0.31503,-0.00027 -0.60673,0.16601 -0.76699,0.43723c-0.16026,0.27122 -0.16521,0.60695 -0.01301,0.88277l5.65,10.22c0.15673,0.28403 0.4556,0.46028 0.78,0.46z"></path><path d="M4,19.6c-0.00269,0.10344 0.03585,0.20372 0.10712,0.27874c0.07127,0.07502 0.16944,0.11864 0.27288,0.12126h8.34c0.32317,-0.00279 0.62118,-0.17495 0.78504,-0.45351c0.16386,-0.27856 0.16954,-0.62267 0.01496,-0.90649l-4.08,-7.41c-0.13628,-0.25097 -0.38138,-0.42442 -0.66339,-0.46946c-0.28201,-0.04504 -0.56894,0.04343 -0.77661,0.23946c-2.44718,2.20357 -3.89143,5.30871 -4,8.6z"></path><path d="M53.72,8h-1.47c-0.38624,-0.03668 -0.75883,0.15335 -0.95592,0.48753c-0.19709,0.33419 -0.18308,0.75221 0.03592,1.07247l5.47,9.9c0.17703,0.3422 0.53491,0.55226 0.92,0.54h1.28c0.55228,0 1,-0.44772 1,-1v-4.72c-0.01098,-3.46379 -2.81621,-6.26902 -6.28,-6.28z"></path><path d="M25.56,9.06l5.84,10.57c0.12182,0.2195 0.34917,0.3597 0.6,0.37h6.54c0.25231,-0.00163 0.48536,-0.13522 0.61428,-0.35213c0.12891,-0.2169 0.13488,-0.48546 0.01572,-0.70787l-5.75,-10.45v-0.09c-0.12279,-0.26053 -0.39263,-0.41926 -0.68,-0.4h-6.55c-0.25231,0.00163 -0.48536,0.13522 -0.61428,0.35213c-0.12891,0.2169 -0.13488,0.48546 -0.01572,0.70787z"></path><path d="M58.8,24h-54.8v20.12c0.02195,6.55203 5.32797,11.85805 11.88,11.88h32.24c6.55203,-0.02195 11.85805,-5.32797 11.88,-11.88v-18.92c0,-0.66274 -0.53726,-1.2 -1.2,-1.2z"></path></g></g></svg>